<svg xmlns="http://www.w3.org/2000/svg" xmlns:xlink="http://www.w3.org/1999/xlink" style="margin:auto;background:0 0;display:block;shape-rendering:auto" width="217" height="217" preserveAspectRatio="xMidYMid" viewBox="0 0 100 100"><g transform="rotate(0 50 50)"><rect width="1" height="19" x="49.5" y="29.5" fill="#fe718d" rx=".5" ry="7.22"><animate attributeName="opacity" begin="-0.4808976756612343s" dur="0.5076142131979695s" keyTimes="0;1" repeatCount="indefinite" values="1;0"/></rect></g><g transform="rotate(18.94736842105263 50 50)"><rect width="1" height="19" x="49.5" y="29.5" fill="#fe718d" rx=".5" ry="7.22"><animate attributeName="opacity" begin="-0.45418113812449906s" dur="0.5076142131979695s" keyTimes="0;1" repeatCount="indefinite" values="1;0"/></rect></g><g transform="rotate(37.89473684210526 50 50)"><rect width="1" height="19" x="49.5" y="29.5" fill="#fe718d" rx=".5" ry="7.22"><animate attributeName="opacity" begin="-0.4274646005877638s" dur="0.5076142131979695s" keyTimes="0;1" repeatCount="indefinite" values="1;0"/></rect></g><g transform="rotate(56.8421052631579 50 50)"><rect width="1" height="19" x="49.5" y="29.5" fill="#fe718d" rx=".5" ry="7.22"><animate attributeName="opacity" begin="-0.4007480630510286s" dur="0.5076142131979695s" keyTimes="0;1" repeatCount="indefinite" values="1;0"/></rect></g><g transform="rotate(75.78947368421052 50 50)"><rect width="1" height="19" x="49.5" y="29.5" fill="#fe718d" rx=".5" ry="7.22"><animate attributeName="opacity" begin="-0.37403152551429336s" dur="0.5076142131979695s" keyTimes="0;1" repeatCount="indefinite" values="1;0"/></rect></g><g transform="rotate(94.73684210526316 50 50)"><rect width="1" height="19" x="49.5" y="29.5" fill="#fe718d" rx=".5" ry="7.22"><animate attributeName="opacity" begin="-0.3473149879775581s" dur="0.5076142131979695s" keyTimes="0;1" repeatCount="indefinite" values="1;0"/></rect></g><g transform="rotate(113.6842105263158 50 50)"><rect width="1" height="19" x="49.5" y="29.5" fill="#fe718d" rx=".5" ry="7.22"><animate attributeName="opacity" begin="-0.32059845044082286s" dur="0.5076142131979695s" keyTimes="0;1" repeatCount="indefinite" values="1;0"/></rect></g><g transform="rotate(132.6315789473684 50 50)"><rect width="1" height="19" x="49.5" y="29.5" fill="#fe718d" rx=".5" ry="7.22"><animate attributeName="opacity" begin="-0.2938819129040876s" dur="0.5076142131979695s" keyTimes="0;1" repeatCount="indefinite" values="1;0"/></rect></g><g transform="rotate(151.57894736842104 50 50)"><rect width="1" height="19" x="49.5" y="29.5" fill="#fe718d" rx=".5" ry="7.22"><animate attributeName="opacity" begin="-0.2671653753673524s" dur="0.5076142131979695s" keyTimes="0;1" repeatCount="indefinite" values="1;0"/></rect></g><g transform="rotate(170.52631578947367 50 50)"><rect width="1" height="19" x="49.5" y="29.5" fill="#fe718d" rx=".5" ry="7.22"><animate attributeName="opacity" begin="-0.24044883783061716s" dur="0.5076142131979695s" keyTimes="0;1" repeatCount="indefinite" values="1;0"/></rect></g><g transform="rotate(189.47368421052633 50 50)"><rect width="1" height="19" x="49.5" y="29.5" fill="#fe718d" rx=".5" ry="7.22"><animate attributeName="opacity" begin="-0.2137323002938819s" dur="0.5076142131979695s" keyTimes="0;1" repeatCount="indefinite" values="1;0"/></rect></g><g transform="rotate(208.42105263157896 50 50)"><rect width="1" height="19" x="49.5" y="29.5" fill="#fe718d" rx=".5" ry="7.22"><animate attributeName="opacity" begin="-0.18701576275714668s" dur="0.5076142131979695s" keyTimes="0;1" repeatCount="indefinite" values="1;0"/></rect></g><g transform="rotate(227.3684210526316 50 50)"><rect width="1" height="19" x="49.5" y="29.5" fill="#fe718d" rx=".5" ry="7.22"><animate attributeName="opacity" begin="-0.16029922522041143s" dur="0.5076142131979695s" keyTimes="0;1" repeatCount="indefinite" values="1;0"/></rect></g><g transform="rotate(246.31578947368422 50 50)"><rect width="1" height="19" x="49.5" y="29.5" fill="#fe718d" rx=".5" ry="7.22"><animate attributeName="opacity" begin="-0.1335826876836762s" dur="0.5076142131979695s" keyTimes="0;1" repeatCount="indefinite" values="1;0"/></rect></g><g transform="rotate(265.2631578947368 50 50)"><rect width="1" height="19" x="49.5" y="29.5" fill="#fe718d" rx=".5" ry="7.22"><animate attributeName="opacity" begin="-0.10686615014694095s" dur="0.5076142131979695s" keyTimes="0;1" repeatCount="indefinite" values="1;0"/></rect></g><g transform="rotate(284.2105263157895 50 50)"><rect width="1" height="19" x="49.5" y="29.5" fill="#fe718d" rx=".5" ry="7.22"><animate attributeName="opacity" begin="-0.08014961261020571s" dur="0.5076142131979695s" keyTimes="0;1" repeatCount="indefinite" values="1;0"/></rect></g><g transform="rotate(303.1578947368421 50 50)"><rect width="1" height="19" x="49.5" y="29.5" fill="#fe718d" rx=".5" ry="7.22"><animate attributeName="opacity" begin="-0.053433075073470476s" dur="0.5076142131979695s" keyTimes="0;1" repeatCount="indefinite" values="1;0"/></rect></g><g transform="rotate(322.10526315789474 50 50)"><rect width="1" height="19" x="49.5" y="29.5" fill="#fe718d" rx=".5" ry="7.22"><animate attributeName="opacity" begin="-0.026716537536735238s" dur="0.5076142131979695s" keyTimes="0;1" repeatCount="indefinite" values="1;0"/></rect></g><g transform="rotate(341.05263157894734 50 50)"><rect width="1" height="19" x="49.5" y="29.5" fill="#fe718d" rx=".5" ry="7.22"><animate attributeName="opacity" begin="0s" dur="0.5076142131979695s" keyTimes="0;1" repeatCount="indefinite" values="1;0"/></rect></g></svg>